<svg xmlns="http://www.w3.org/2000/svg" viewBox="0 0 256 256">
<circle cx="128" cy="128" r="118" fill="#F7E9F0"/>
<circle cx="128" cy="128" r="118" fill="none" stroke="#8B2E5C" stroke-width="7"/>

<path d="M120 60c-26 0-44 18-44 40 0 8 2 14 6 20-6 6-8 14-6 22 4 14 18 22 34 20 6 8 16 12 26 10s18-10 20-20c14-4 24-16 24-30 0-10-4-18-12-24 2-22-20-38-48-38z" fill="#FFFFFF" stroke="#2A2130" stroke-width="7" stroke-linejoin="round"/>
<path d="M104 96c10-8 26-8 36 2m-42 24c14 10 34 8 46-4" fill="none" stroke="#8B2E5C" stroke-width="6" stroke-linecap="round"/>
<line x1="56" y1="196" x2="196" y2="196" stroke="#0F6B57" stroke-width="8" stroke-linecap="round"/>
<path d="M196 196l-16-10v20z" fill="#0F6B57"/>
<circle cx="72" cy="196" r="7" fill="#B5540F" stroke="#2A2130" stroke-width="4"/>
<circle cx="126" cy="196" r="7" fill="#B5540F" stroke="#2A2130" stroke-width="4"/>
<circle cx="180" cy="196" r="7" fill="#B5540F" stroke="#2A2130" stroke-width="4"/>
</svg>